HIERARCHY
ROOT root
{
	OFFSET 0.000000 0.000000 0.000000
	CHANNELS 6 Xposition Yposition Zposition Zrotation Yrotation Xrotation
	JOINT lhip
	{
		OFFSET 0.058581 -0.082280 -0.017664
		CHANNELS 3 Zrotation Yrotation Xrotation
		JOINT lknee
		{
			OFFSET 0.043451 -0.386469 0.008037
			CHANNELS 3 Zrotation Yrotation Xrotation
			JOINT lankle
			{
				OFFSET -0.014790 -0.426874 -0.037428
				CHANNELS 3 Zrotation Yrotation Xrotation
				JOINT ltoe
				{
					OFFSET 0.041054 -0.060286 0.122042
					CHANNELS 3 Zrotation Yrotation Xrotation
					End Site
					{
						OFFSET 0.000000 0.000000 0.000000
					}
				}
			}
		}
	}
	JOINT rhip
	{
		OFFSET -0.060310 -0.090513 -0.013543
		CHANNELS 3 Zrotation Yrotation Xrotation
		JOINT rknee
		{
			OFFSET -0.043257 -0.383688 -0.004843
			CHANNELS 3 Zrotation Yrotation Xrotation
			JOINT rankle
			{
				OFFSET 0.019056 -0.420046 -0.034562
				CHANNELS 3 Zrotation Yrotation Xrotation
				JOINT rtoe
				{
					OFFSET -0.034840 -0.062106 0.130323
					CHANNELS 3 Zrotation Yrotation Xrotation
					End Site
					{
						OFFSET 0.000000 0.000000 0.000000
					}
				}
			}
		}
	}
	JOINT lowerback
	{
		OFFSET 0.004439 0.124404 -0.038385
		CHANNELS 3 Zrotation Yrotation Xrotation
		JOINT upperback
		{
			OFFSET 0.004488 0.137956 0.026820
			CHANNELS 3 Zrotation Yrotation Xrotation
			JOINT chest
			{
				OFFSET -0.002265 0.056032 0.002855
				CHANNELS 3 Zrotation Yrotation Xrotation
				JOINT lowerneck
				{
					OFFSET -0.013390 0.211636 -0.033468
					CHANNELS 3 Zrotation Yrotation Xrotation
					JOINT upperneck
					{
						OFFSET 0.010113 0.088937 0.050410
						CHANNELS 3 Zrotation Yrotation Xrotation
						End Site
						{
							OFFSET 0.000000 0.000000 0.000000
						}
					}
				}
				JOINT lclavicle
				{
					OFFSET 0.071702 0.114000 -0.018898
					CHANNELS 3 Zrotation Yrotation Xrotation
					JOINT lshoulder
					{
						OFFSET 0.122921 0.045205 -0.019046
						CHANNELS 3 Zrotation Yrotation Xrotation
						JOINT lelbow
						{
							OFFSET 0.255332 -0.015649 -0.022946
							CHANNELS 3 Zrotation Yrotation Xrotation
							JOINT lwrist
							{
								OFFSET 0.265709 0.012698 -0.007375
								CHANNELS 3 Zrotation Yrotation Xrotation
								End Site
								{
									OFFSET 0.000000 0.000000 0.000000
								}
							}
						}
					}
				}
				JOINT rclavicle
				{
					OFFSET -0.082954 0.112472 -0.023707
					CHANNELS 3 Zrotation Yrotation Xrotation
					JOINT rshoulder
					{
						OFFSET -0.113228 0.046853 -0.008472
						CHANNELS 3 Zrotation Yrotation Xrotation
						JOINT relbow
						{
							OFFSET -0.260127 -0.014369 -0.031269
							CHANNELS 3 Zrotation Yrotation Xrotation
							JOINT rwrist
							{
								OFFSET -0.269108 0.006794 -0.006027
								CHANNELS 3 Zrotation Yrotation Xrotation
								End Site
								{
									OFFSET 0.000000 0.000000 0.000000
								}
							}
						}
					}
				}
			}
		}
	}
}
MOTION
Frames: 7
Frame Time: 0.033333
2.318345 0.644805 0.991645 -91.409327 0.532277 86.452069 -3.352039 0.124228 2.645535 -0.511640 -8.158290 2.500872 2.813938 11.156740 -8.911568 0.000000 -0.000000 0.000000 -1.770269 -1.747967 0.223942 -4.005560 0.277149 8.249298 2.500939 -9.599927 -8.736121 0.000000 -0.000000 0.000000 -0.804818 3.229248 3.288459 0.646867 -1.197355 4.825738 -1.356576 2.395780 -4.634503 -0.073919 -3.491678 -1.113314 4.784256 -3.909384 2.448643 -26.957130 -5.193999 0.529710 -54.714052 -6.123974 16.963530 1.720227 -21.124927 4.256447 -6.784082 -6.811957 5.518893 26.689885 9.230745 4.626959 55.298179 1.750227 16.434296 -7.840392 25.162895 0.497435 4.665551 6.242543 1.549962 
2.315872 0.639777 0.990401 -91.919665 0.511815 86.365783 -3.749234 0.190068 3.200911 -0.665057 -8.666285 2.095743 2.888672 11.388897 -9.430122 0.000000 -0.000000 0.000000 -2.164703 -1.111354 -0.994448 -3.894469 0.531335 10.961409 2.606433 -9.700359 -9.555038 0.000000 -0.000000 0.000000 -0.563198 2.995396 3.364756 0.552899 -0.789052 4.942353 -1.573455 2.391547 -4.776784 0.091660 -3.678826 -1.393958 4.803691 -3.945155 2.858068 -26.904334 -5.149082 0.496957 -54.576826 -6.127127 16.946643 2.132393 -21.030178 3.887104 -5.886858 -7.177728 5.361993 26.533862 9.152108 4.685300 55.259688 1.607857 16.348479 -7.998253 24.789046 -0.246691 3.860819 6.323744 0.429497 
2.314674 0.635566 0.989471 -92.117545 0.473123 86.158541 -3.983369 0.157458 3.814838 -0.858571 -9.226186 1.674644 3.070120 11.663442 -10.141808 0.000000 -0.000000 0.000000 -2.548789 -0.496132 -3.272143 -3.619581 0.450329 15.790266 2.562479 -9.944947 -9.947552 0.000000 -0.000000 0.000000 -0.812827 2.461423 3.989342 0.714013 -0.487536 4.583660 -1.566530 2.494580 -4.498036 0.232640 -3.689358 -1.494981 4.814309 -4.049005 2.256169 -26.646740 -5.117291 0.147477 -54.495780 -6.353388 16.821615 2.437245 -20.702662 2.993574 -5.732702 -7.261582 5.129090 26.506223 9.138057 4.287245 55.078789 1.381046 16.207356 -8.672683 24.348316 -1.138648 3.000529 6.424181 0.153564 
2.312429 0.630249 0.989473 -92.007775 0.339190 85.744118 -4.492124 0.585223 4.908755 -0.789639 -10.036230 0.793525 3.419973 12.094543 -10.267160 0.000000 -0.000000 0.000000 -3.155424 0.059496 -6.991045 -3.172817 -0.196017 23.842272 2.445906 -10.123549 -9.637857 0.000000 -0.000000 0.000000 -1.170173 1.479414 4.588430 0.968345 -0.292167 5.259129 -1.685464 2.429383 -4.717038 0.405895 -3.784376 -2.255949 4.726419 -4.200218 1.818429 -26.466370 -5.335706 0.139390 -53.966141 -6.138802 16.499834 3.002927 -20.790136 1.535089 -6.267320 -6.810394 5.550290 26.822785 9.361674 4.233810 54.497305 1.283728 15.911186 -9.437421 24.385592 -1.964960 4.248765 6.177322 0.449923 
2.310343 0.627675 0.990200 -91.693260 0.532919 85.372315 -4.448794 0.935836 5.818877 -0.628668 -10.579471 0.165251 3.372609 12.196830 -10.275638 0.000000 -0.000000 0.000000 -3.231467 0.236995 -9.093914 -3.000564 -1.075524 28.576327 2.117359 -10.453607 -8.568727 0.000000 -0.000000 0.000000 -1.220301 0.836613 5.141366 1.219743 -0.288623 5.405086 -1.679752 2.384781 -4.651975 0.439657 -3.637922 -2.193195 4.732461 -4.309349 0.967576 -26.137806 -5.434190 -0.132325 -54.011093 -6.014525 16.492238 3.165899 -19.656966 0.976880 -8.015360 -6.015321 6.175227 26.999492 9.375359 3.805920 54.198179 1.011128 15.688089 -10.115267 24.126980 -2.548860 5.160428 6.338626 1.096864 
2.306842 0.624739 0.991272 -90.929780 0.808254 84.611219 -4.448349 1.136794 7.199734 -0.371437 -11.602870 -0.267979 3.554056 12.467332 -10.770183 0.000000 -0.000000 0.000000 -3.263992 0.432520 -12.302474 -3.283829 -2.538748 36.290115 2.024052 -11.059294 -7.228263 0.000000 -0.000000 0.000000 -1.221029 -0.325862 6.272429 1.447084 -0.304896 5.505216 -1.747081 2.126370 -4.602516 0.643190 -3.656142 -2.500462 4.659083 -4.132563 0.274329 -26.045777 -5.679243 0.109138 -53.557705 -5.789836 16.448808 3.596796 -19.813112 0.256428 -6.179014 -6.173827 6.355094 26.753057 9.407206 3.492128 54.540301 0.494525 15.703855 -10.079069 24.350755 -2.916402 4.210553 6.068100 -0.450061 
2.301353 0.621887 0.992428 -89.536063 1.212458 84.113725 -4.222884 1.122671 8.177928 -0.070297 -12.589152 -0.474739 3.607225 12.298210 -10.828889 0.000000 -0.000000 0.000000 -3.335920 0.132530 -15.049572 -3.426288 -4.007967 42.301857 1.783530 -11.456427 -6.849522 0.000000 -0.000000 0.000000 -1.352488 -1.259101 6.326829 1.906702 -0.916062 6.549012 -1.618164 1.722120 -4.569894 0.754306 -3.097663 -2.756794 4.549297 -4.439947 -0.426667 -25.632045 -6.105951 0.256151 -53.359069 -5.570282 16.305533 3.488024 -19.429261 -0.187738 -6.692417 -5.699750 6.983881 27.123479 9.548377 3.460918 54.135647 -0.057686 15.321240 -10.653593 24.825611 -3.271727 5.064559 6.019493 -0.060015 
